<svg width="23" height="17" viewBox="0 0 23 17" fill="none" xmlns="http://www.w3.org/2000/svg">
<path fill-rule="evenodd" clip-rule="evenodd" d="M14.245 0C11.1202 0.00239873 8.26429 1.76831 6.86593 4.56281C4.64264 4.23856 2.42451 5.18363 1.11825 7.01171C-0.188004 8.83978 -0.36345 11.2445 0.663633 13.2428C1.69072 15.2411 3.74819 16.4981 5.995 16.5H14.245C18.8013 16.5 22.495 12.8063 22.495 8.25C22.495 3.69365 18.8013 0 14.245 0ZM14.245 15H5.995C3.50971 15 1.495 12.9853 1.495 10.5C1.495 8.01472 3.50971 6 5.995 6C6.09812 6 6.20124 6 6.30343 6.01031C6.09833 6.73918 5.99454 7.49282 5.995 8.25C5.995 8.66421 6.33078 9 6.745 9C7.15921 9 7.495 8.66421 7.495 8.25C7.495 4.52208 10.5171 1.5 14.245 1.5C17.9729 1.5 20.995 4.52208 20.995 8.25C20.995 11.9779 17.9729 15 14.245 15Z" fill="white"/>
</svg>
