<svg width="24" height="24" viewBox="0 0 24 24" fill="none" xmlns="http://www.w3.org/2000/svg">
<g clip-path="url(#clip0_56_18)">
<path fill-rule="evenodd" clip-rule="evenodd" d="M20.25 10.5V19.5C20.25 20.3284 19.5784 21 18.75 21H5.25C4.42157 21 3.75 20.3284 3.75 19.5V10.5C3.75 9.67157 4.42157 9 5.25 9H7.5C7.91421 9 8.25 9.33579 8.25 9.75C8.25 10.1642 7.91421 10.5 7.5 10.5H5.25V19.5H18.75V10.5H16.5C16.0858 10.5 15.75 10.1642 15.75 9.75C15.75 9.33579 16.0858 9 16.5 9H18.75C19.5784 9 20.25 9.67157 20.25 10.5ZM8.78063 6.53062L11.25 4.06031V12.75C11.25 13.1642 11.5858 13.5 12 13.5C12.4142 13.5 12.75 13.1642 12.75 12.75V4.06031L15.2194 6.53062C15.4089 6.7202 15.6853 6.79424 15.9442 6.72485C16.2032 6.65546 16.4055 6.45319 16.4748 6.19422C16.5442 5.93526 16.4702 5.65895 16.2806 5.46938L12.5306 1.71938C12.3899 1.57854 12.1991 1.49941 12 1.49941C11.8009 1.49941 11.6101 1.57854 11.4694 1.71938L7.71938 5.46938C7.5298 5.65895 7.45576 5.93526 7.52515 6.19422C7.59454 6.45319 7.79681 6.65546 8.05578 6.72485C8.31474 6.79424 8.59105 6.7202 8.78063 6.53062Z" fill="white"/>
</g>
<defs>
<clipPath id="clip0_56_18">
<rect width="24" height="24" fill="white"/>
</clipPath>
</defs>
</svg>
