<svg width="20" height="20" viewBox="0 0 20 20" fill="none" xmlns="http://www.w3.org/2000/svg">
                <path fill-rule="evenodd" clip-rule="evenodd" d="M19.3014 18.2401L14.6073 13.547C17.4336 10.1538 17.0912 5.13769 13.8299 2.1601C10.5686 -0.817485 5.54207 -0.703249 2.4194 2.41942C-0.703272 5.54209 -0.817508 10.5686 2.16008 13.8299C5.13766 17.0912 10.1538 17.4337 13.547 14.6073L18.2401 19.3014C18.5332 19.5944 19.0083 19.5944 19.3014 19.3014C19.5944 19.0083 19.5944 18.5332 19.3014 18.2401ZM1.52073 8.27075C1.52073 4.54283 4.54281 1.52075 8.27073 1.52075C11.9987 1.52075 15.0207 4.54283 15.0207 8.27075C15.0207 11.9987 11.9987 15.0208 8.27073 15.0208C4.54452 15.0166 1.52486 11.997 1.52073 8.27075Z" fill="#C99194"></path>
                </svg>