<svg width="24" height="24" viewBox="0 0 24 24" fill="none" xmlns="http://www.w3.org/2000/svg">
<g clip-path="url(#clip0_2_1689)">
<path fill-rule="evenodd" clip-rule="evenodd" d="M19.5 3.75H4.5C3.67157 3.75 3 4.42157 3 5.25V10.7606C3 19.1616 10.1081 21.9487 11.5312 22.4222C11.8352 22.5256 12.1648 22.5256 12.4688 22.4222C13.8938 21.9487 21 19.1616 21 10.7606V5.25C21 4.42157 20.3284 3.75 19.5 3.75ZM19.5 10.7616C19.5 18.1134 13.2797 20.5697 12 20.9972C10.7316 20.5744 4.5 18.12 4.5 10.7616V5.25H19.5V10.7616ZM7.71938 13.2806C7.42632 12.9876 7.42632 12.5124 7.71938 12.2194C8.01243 11.9263 8.48757 11.9263 8.78063 12.2194L10.5 13.9388L15.2194 9.21937C15.5124 8.92632 15.9876 8.92632 16.2806 9.21937C16.5737 9.51243 16.5737 9.98757 16.2806 10.2806L11.0306 15.5306C10.8899 15.6715 10.6991 15.7506 10.5 15.7506C10.3009 15.7506 10.1101 15.6715 9.96937 15.5306L7.71938 13.2806Z" fill="white"/>
</g>
<defs>
<clipPath id="clip0_2_1689">
<rect width="24" height="24" fill="white"/>
</clipPath>
</defs>
</svg>
