<svg width="15" height="15" viewBox="0 0 15 15" fill="none" xmlns="http://www.w3.org/2000/svg">
            <path fill-rule="evenodd" clip-rule="evenodd" d="M14.7811 13.7197C15.0741 14.0128 15.0741 14.4879 14.7811 14.781C14.488 15.074 14.0129 15.074 13.7198 14.781L7.50043 8.56068L1.28105 14.781C0.987996 15.074 0.512858 15.074 0.219802 14.781C-0.0732536 14.4879 -0.0732536 14.0128 0.219802 13.7197L6.44011 7.50037L0.219802 1.28099C-0.0732536 0.987935 -0.0732536 0.512797 0.219802 0.219741C0.512858 -0.0733147 0.987996 -0.0733147 1.28105 0.219741L7.50043 6.44005L13.7198 0.219741C14.0129 -0.0733147 14.488 -0.0733147 14.7811 0.219741C15.0741 0.512797 15.0741 0.987935 14.7811 1.28099L8.56074 7.50037L14.7811 13.7197Z" fill="white"></path>
            </svg>